<svg xmlns="http://www.w3.org/2000/svg" id="prefix__store" width="16.239" height="15.748" viewBox="0 0 16.239 15.748">
    <defs>
        <style>
            .prefix__cls-1{fill:#424242}
        </style>
    </defs>
    <g id="prefix__Group_89" data-name="Group 89" transform="translate(0 4.133)">
        <g id="prefix__Group_88" data-name="Group 88">
            <path id="prefix__Path_3884" d="M0 138.051a3.076 3.076 0 0 0 5.6 1.761 3.076 3.076 0 0 0 5.044 0 3.076 3.076 0 0 0 5.6-1.761z" class="prefix__cls-1" data-name="Path 3884" transform="translate(0 -138.051)"/>
        </g>
    </g>
    <g id="prefix__Group_91" data-name="Group 91" transform="translate(.391)">
        <g id="prefix__Group_90" data-name="Group 90">
            <path id="prefix__Path_3885" d="M25.661 7.734H14.483l-2.139 3.182H27.8z" class="prefix__cls-1" data-name="Path 3885" transform="translate(-12.344 -7.734)"/>
        </g>
    </g>
    <g id="prefix__Group_93" data-name="Group 93" transform="translate(.52 7.245)">
        <g id="prefix__Group_92" data-name="Group 92">
            <path id="prefix__Path_3886" d="M29.027 237.1a4.03 4.03 0 0 1-2.522-.888 4.025 4.025 0 0 1-5.044 0 4.027 4.027 0 0 1-5.078-.026v8.5h5.087v-3.106a2.513 2.513 0 1 1 5.026 0v3.107h5.087v-8.5a4 4 0 0 1-2.556.913z" class="prefix__cls-1" data-name="Path 3886" transform="translate(-16.384 -236.184)"/>
        </g>
    </g>
</svg>
